<?xml version="1.0" encoding="UTF-8"?>
<svg width="64px" height="71px" viewBox="0 0 64 71" version="1.1" xmlns="http://www.w3.org/2000/svg" xmlns:xlink="http://www.w3.org/1999/xlink">
    <!-- Generator: Sketch 42 (36781) - http://www.bohemiancoding.com/sketch -->
    <title>Group</title>
    <desc>Created with Sketch.</desc>
    <defs></defs>
    <g id="Page-1" stroke="none" stroke-width="1" fill="none" fill-rule="evenodd">
        <g id="Group" fill-rule="nonzero" fill="#8CC84B">
            <path d="M29.126,0.901347518 C30.8665,-0.101968085 33.1335,-0.1065 34.8725,0.901347518 C43.62125,5.8799078 52.37275,10.8506631 61.12,15.8322447 C62.76525,16.7655674 63.86575,18.6095532 63.849,20.5187482 L63.849,50.4716844 C63.86125,52.4599362 62.652,54.3479823 60.91625,55.260156 C52.19625,60.211273 43.48075,65.1684326 34.76225,70.1195496 C32.98575,71.1425035 30.67325,71.0636986 28.95225,69.9569043 C26.338,68.430656 23.71925,66.911961 21.10475,65.3872234 C20.5705,65.0664645 19.96825,64.8111667 19.591,64.2894929 C19.9245,63.836805 20.52075,63.7804078 21.00525,63.582766 C22.0965,63.233305 23.09875,62.6723546 24.10125,62.1280213 C24.35475,61.9532908 24.66425,62.0202624 24.90725,62.1766135 C27.14275,63.4674539 29.3585,64.7958085 31.6015,66.0743121 C32.08,66.3525213 32.5645,65.9831702 32.9735,65.7535532 C41.5305,60.8830035 50.098,56.0308333 58.6535,51.158773 C58.9705,51.0051915 59.14575,50.666305 59.12,50.3165922 C59.126,40.4357589 59.1215,30.5531631 59.123,20.6723298 C59.15925,20.2755355 58.93125,19.9107163 58.575,19.7483227 C49.88525,14.8198652 41.2,9.88385461 32.51175,4.9541383 C32.2036332,4.74080923 31.7969864,4.74020904 31.48825,4.95262766 C22.8,9.88385461 14.11625,14.8243972 5.428,19.7526028 C5.073,19.9152482 4.83475,20.2740248 4.877,20.6723298 C4.8785,30.5531631 4.877,40.4357589 4.877,50.3181028 C4.84614418,50.6675788 5.03469277,50.9994269 5.3495,51.1497092 C7.668,52.4737837 9.9895,53.7885426 12.3095,55.1080851 C13.6165,55.8165745 15.22125,56.237539 16.66125,55.6947163 C17.932,55.235734 18.82275,53.9297872 18.7985,52.5709681 C18.8105,42.7477908 18.7925,32.9231028 18.8075,23.1014362 C18.77575,22.6653652 19.1865,22.305078 19.6075,22.346117 C20.7215,22.3385638 21.837,22.3310106 22.951,22.3491383 C23.416,22.3385638 23.736,22.8081206 23.6785,23.2474645 C23.674,33.1328298 23.6905,43.0184468 23.671,52.9038121 C23.674,55.5383652 22.59925,58.4050532 20.1795,59.6941312 C17.1985,61.2493333 13.514,60.9195106 10.569,59.4282589 C8.0195,58.146734 5.5865,56.6343333 3.08225,55.2614149 C1.342,54.3542766 0.13875,52.4586773 0.151,50.4719362 L0.151,20.5187482 C0.13275,18.5700248 1.277,16.6925532 2.9735,15.7728262 C11.692,10.8176809 20.409,5.85875887 29.126,0.901347518 Z" id="Shape"></path>
            <path d="M36.732,21.6499645 C40.5345,21.4034787 44.60525,21.5039362 48.027,23.3904716 C50.67625,24.8361525 52.145,27.8702695 52.19175,30.8343936 C52.11775,31.2342092 51.70275,31.4547624 51.32375,31.4273191 C50.2205,31.4258085 49.117,31.4424255 48.01375,31.419766 C47.54575,31.4378936 47.27375,31.0033333 47.215,30.5866489 C46.898,29.1684113 46.13,27.7637695 44.8045,27.0797021 C42.76975,26.053727 40.4105,26.1053404 38.19175,26.1267411 C36.572,26.2133511 34.83025,26.3545957 33.458,27.3138511 C32.4045,28.0404681 32.0845,29.5072979 32.4605,30.688617 C32.815,31.5368404 33.78725,31.8105177 34.58275,32.0627943 C39.16525,33.2697943 44.02125,33.1496986 48.51625,34.7381348 C50.37725,35.385695 52.19775,36.6445603 52.83475,38.6068794 C53.668,41.2369007 53.30275,44.380539 51.44475,46.4919078 C49.938,48.2293936 47.7435,49.1750532 45.55475,49.6886702 C42.643,50.3425248 39.62125,50.3591418 36.66425,50.0688475 C33.88375,49.7495993 30.99025,49.0139184 28.84375,47.1059823 C27.00825,45.5009291 26.11175,43.0000674 26.20075,40.5863191 C26.222,40.1786986 26.625,39.8944468 27.01275,39.9279326 C28.12375,39.9188688 29.23475,39.9158475 30.34575,39.9294433 C30.7895,39.8974681 31.1185,40.2836879 31.14125,40.7049043 C31.34625,42.0561702 31.8505,43.4744078 33.0205,44.2755496 C35.2785,45.7426312 38.11175,45.6421738 40.69725,45.6832128 C42.83925,45.587539 45.24375,45.5585851 46.99175,44.1327943 C47.914,43.3195674 48.18725,41.9589858 47.938,40.7884929 C47.668,39.8002837 46.6415,39.3397908 45.76,39.0386702 C41.23625,37.5975213 36.326,38.1204539 31.846,36.490727 C30.02725,35.8434184 28.2685,34.6195496 27.56975,32.7377979 C26.59475,30.0745426 27.0415,26.780344 29.09425,24.740227 C31.09575,22.7109362 33.985,21.9294326 36.732,21.6497128 L36.732,21.6499645 Z" id="Shape"></path>
        </g>
    </g>
</svg>